<svg xmlns="http://www.w3.org/2000/svg" width="200" height="190.51" class="icon" viewBox="0 0 1075 1024"><path fill="#6646fe" d="M675.123 629.658A368.44 368.44 0 0 0 548.301 253.44a328.96 328.96 0 0 1 164.659-43.776c21.914 0 43.725 2.1 65.229 6.4l9.062-36.352a370.7 370.7 0 0 0-74.342-7.475 366.1 366.1 0 0 0-197.632 57.446 366.2 366.2 0 0 0-197.632-57.446 370 370 0 0 0-74.291 7.526l9.01 36.301c21.505-4.3 43.367-6.4 65.332-6.4a329.6 329.6 0 0 1 164.71 43.725 368.384 368.384 0 0 0 22.426 591.104l10.598 7.27 10.548-7.27a368.9 368.9 0 0 0 149.248-214.835zM496.59 791.04a330.91 330.91 0 0 1-99.533-349.286 370.4 370.4 0 0 0 69.632 84.275 90.62 90.62 0 0 1 29.9 67.481zm18.739-273.408a331.9 331.9 0 0 1-66.355-65.536 91.44 91.44 0 0 1 0-110.797c18.944-25.088 41.267-47.309 66.457-66.048 25.498 18.944 48.026 41.523 67.072 66.97a90.52 90.52 0 0 1 0 108.544 334.5 334.5 0 0 1-67.174 66.867m18.637 273.408V593.51a90.62 90.62 0 0 1 30.003-67.481 369 369 0 0 0 69.53-84.275 331.16 331.16 0 0 1-99.533 349.286"/></svg>