<svg xmlns="http://www.w3.org/2000/svg" width="200" height="200" class="icon" viewBox="0 0 1024 1024"><path fill="#ea4646" d="M295.526 392.14c19.456-16.486 40.704-33.177 62.67-47.615-16.692 55.04-19.866 173.568 106.905 193.536 95.232 15.001 119.296 45.21 108.083 195.942-19.558 9.216-39.014 16.896-58.88 24.064 12.544-62.464 26.47-174.592-64.307-192.819-110.541-22.272-167.936-36.864-154.47-173.107"/><path fill="#ea4646" d="M373.248 334.643a889 889 0 0 1 58.368-33.536c-21.504 100.864-14.336 188.416 103.782 206.848 69.99 10.957 124.263 36.25 110.234 186.368a714 714 0 0 1-54.374 31.027c10.393-59.904 10.65-180.838-72.192-193.587-124.57-19.2-162.253-53.248-145.818-197.12"/><path fill="#ea4646" d="M449.075 292.71c19.61-8.755 47.053-20.48 57.856-23.552-21.35 75.93-10.496 195.994 86.835 211.968 90.983 14.9 132.813 65.69 123.188 162.356-18.484 14.694-35.482 27.238-54.426 39.936 16.128-93.082-18.432-172.237-82.79-181.556-138.138-20.07-153.6-77.875-130.663-209.152"/><path fill="#1a2781" d="M267.008 418.918c-89.702 84.685-137.78 197.786-100.915 280.064 41.984 93.799 195.891 111.002 315.494 68.71 25.395-110.796 38.298-172.338-63.488-191.897-148.173-28.57-149.913-87.193-151.091-156.877m484.3 193.536c87.758-85.81 148.583-202.547 104.346-289.075-50.022-97.792-207.974-100.454-316.006-64.46-31.744 86.527-23.04 194.355 65.946 207.308 129.228 18.74 134.348 72.858 145.715 146.227"/><path fill="#de1a1b" d="M295.526 392.09c19.456-16.538 40.704-33.178 62.67-47.668-16.692 55.092-19.866 173.62 106.905 193.536 95.232 15.053 119.296 45.261 108.083 195.994-19.558 9.216-39.014 16.896-58.88 24.064 12.544-62.515 26.47-174.592-64.307-192.87-110.541-22.221-167.936-36.864-154.47-173.056"/><path fill="#de1a1b" d="M373.248 334.643c18.842-11.98 37.427-22.323 58.368-33.536-21.504 100.864-14.336 188.416 103.782 206.848 69.99 10.957 124.263 36.25 110.234 186.368-18.534 11.879-35.533 21.095-54.374 31.027 10.393-59.904 10.65-180.838-72.192-193.587-124.57-19.2-162.253-53.248-145.818-197.12"/><path fill="#de1a1b" d="M449.075 292.71c19.61-8.755 47.053-20.48 57.856-23.552-21.35 75.93-10.496 195.994 86.835 211.968 90.983 14.9 132.813 65.69 123.188 162.407-18.484 14.592-35.482 27.136-54.426 39.885 16.128-93.03-18.432-172.237-82.79-181.556-138.138-20.07-153.6-77.875-130.663-209.152"/></svg>