<svg xmlns="http://www.w3.org/2000/svg" width="209.961" height="200" class="icon" viewBox="0 0 1075 1024"><path fill="#52c9a3" d="M398.848 872.858c-36.813-8.704-69.99-47.616-76.698-89.856-3.84-24.372.41-44.442 14.08-66.458 4.096-6.554 69.018-74.086 151.757-157.798 84.48-85.504 147.61-151.143 151.86-158.004 8.601-13.824 17.51-35.174 19.763-47.36.921-4.812 2.816-9.216 4.25-9.728 3.122-1.228 85.094 81.05 100.351 100.762 28.365 36.096 32.103 51.814 32.256 69.786-.102 27.392-11.776 39.372-25.241 59.801-9.216 13.875-274.944 277.709-290.1 287.898-5.376 3.635-14.95 8.192-21.196 10.035-12.493 3.738-47.104 4.25-61.133.922z"/><path fill="#14a8c9" d="M419.328 389.018c-70.4-71.066-79.462-81.05-85.606-94.31-19.047-40.96-11.264-87.348 19.712-117.044 7.27-7.014 18.33-15.36 24.576-18.483 31.334-16.026 74.65-13.005 103.782 7.168 5.58 3.84 32.256 29.389 59.392 56.78 42.7 43.111 50.38 51.917 57.19 65.793 14.285 29.184 12.698 56.473-5.222 91.238-6.707 12.954-15.565 23.552-43.725 52.275-32.358 33.024-35.993 36.045-43.315 35.994-7.526 0-13.005-5.018-86.784-79.411"/><path fill="#5369a9" d="m256.666 698.624-4.967-5.325V327.526c0-7.372 11.776-9.881 18.33-9.932 7.27 0 14.336 6.553 100.352 93.184 80.793 81.254 92.672 88.012 92.62 99.993 0 11.981-11.775 18.688-92.62 99.994-87.347 87.859-93.03 93.133-100.71 93.133a16.64 16.64 0 0 1-13.057-5.274z"/></svg>