<svg xmlns="http://www.w3.org/2000/svg" width="200" height="200" class="icon" viewBox="0 0 1024 1024"><path d="M512 921.6A409.09 409.09 0 0 1 102.4 512c0-226.611 182.989-409.6 409.6-409.6S921.6 285.389 921.6 512c0 226.355-182.989 409.6-409.6 409.6"/><path fill="#fff100" d="M731.034 450.765H650.65v121.241h80.384c33.536 0 60.979-27.648 60.979-60.979 0-33.28-27.443-60.262-60.98-60.262m-474.061 60.979a169.984 169.984 0 0 0 169.779 169.78 169.984 169.984 0 0 0 169.78-169.78 169.984 169.984 0 0 0-169.78-169.728 169.984 169.984 0 0 0-169.78 169.78z"/></svg>