<svg xmlns="http://www.w3.org/2000/svg" width="200" height="200" class="icon" viewBox="0 0 1024 1024"><path fill="#343741" d="M177.152 512c0 33.69 4.762 66.202 12.8 97.382h474.01a97.382 97.382 0 0 0 0-194.764h-474.01a388 388 0 0 0-12.8 97.382"/><path fill="#fec514" d="M832.512 309.043c13.62-12.544 26.317-26.06 37.888-40.448a388.6 388.6 0 0 0-303.77-146.022c-153.856 0-286.208 89.497-349.44 219.033h532.224a122.3 122.3 0 0 0 83.098-32.563"/><path fill="#00bfb3" d="M749.466 682.394H217.242c63.18 129.536 195.584 219.033 349.388 219.033A388.6 388.6 0 0 0 870.4 755.405a372 372 0 0 0-37.888-40.448 122.52 122.52 0 0 0-83.046-32.563"/></svg>