<svg xmlns="http://www.w3.org/2000/svg" width="209.961" height="200" class="icon" viewBox="0 0 1075 1024"><path fill="#9f53e6" d="M170.24 333.005a20.5 20.5 0 0 0-3.84 8.601h-.205v84.122a19.87 19.87 0 0 0 11.367 16.691l269.363 158.26a136.45 136.45 0 0 0 125.542 0l269.517-157.697a19.87 19.87 0 0 0 11.366-16.742l1.024-83.968-217.241-116.838-160.461 92.979a19.35 19.35 0 0 0-11.315 16.691v83.814c2.048 5.888 6.093 10.957 11.315 14.336 2.56-35.84 42.496-58.265 42.496-58.265l116.94-66.765 152.577 82.893-216.218 128.307a137.47 137.47 0 0 1-125.491 0l-226.509-133.58 226.407-133.53a126.5 126.5 0 0 1 62.873-15.207V153.6a126.8 126.8 0 0 0-62.873 15.155l-269.21 158.31a20.5 20.5 0 0 0-7.373 5.94zm679.22 236.851a19.9 19.9 0 0 0 3.378-9.882l-.307-83.302a19.87 19.87 0 0 1-11.366 16.691L572.109 651.571a136.5 136.5 0 0 1-125.491 0L177.05 492.75a19.87 19.87 0 0 1-11.367-16.691v83.456a19.87 19.87 0 0 0 11.367 16.69l269.568 158.414a137.42 137.42 0 0 0 125.49 0l269.364-157.901a19.97 19.97 0 0 0 7.987-6.81zm3.378 119.654a19.92 19.92 0 0 1-11.366 16.692L572.109 863.949a136.5 136.5 0 0 1-125.491 0L177.05 705.74a19.87 19.87 0 0 1-11.367-16.743v-83.456a19.71 19.71 0 0 0 11.367 16.692l269.568 158.412a137.47 137.47 0 0 0 125.49 0l269.057-157.9a19.56 19.56 0 0 0 11.366-16.692z"/></svg>