<svg xmlns="http://www.w3.org/2000/svg" width="200" height="200" class="icon" viewBox="0 0 1024 1024"><path fill="#10aa50" d="M707.072 419.789C658.944 204.544 558.797 147.2 533.197 106.7A463 463 0 0 1 505.344 51.2c-1.382 19.098-3.84 31.18-19.866 45.67-32.153 29.082-168.704 142.03-180.224 386.612-10.7 228.044 165.172 368.64 188.416 383.18 17.92 8.91 39.63.154 50.228-8.038C628.685 799.59 744.55 642.15 707.226 419.789"/><path fill="#b8c4c2" d="M528.486 716.8c-4.454 62.26-7.628 98.406-18.944 133.99 0 0 7.424 59.239 12.647 122.01h18.432a1260 1260 0 0 1 20.121-131.43c-23.859-13.056-31.334-69.94-32.256-124.57"/><path fill="#12924f" d="M546.304 870.4c-23.706-11.469-30.618-65.28-31.642-115.405 5.837-82.688 7.578-165.632 5.12-248.473-1.228-43.52.564-402.74-10.24-455.322 7.424 17.818 15.924 35.072 25.55 51.712 25.292 41.42 124.518 99.942 172.031 319.744C744.192 649.37 630.17 809.728 546.355 870.4z"/></svg>