<svg xmlns="http://www.w3.org/2000/svg" width="200" height="200" class="icon" viewBox="0 0 1024 1024"><path fill="#0a5af6" d="M805.274 704c-38.196-1.024-67.84 2.918-92.672 13.62-7.168 2.918-18.586 2.918-19.559 12.185 3.84 3.84 4.301 10.189 7.68 15.565 5.683 9.728 15.719 22.835 24.781 29.696 10.035 7.73 20.07 15.513 30.618 22.323 18.585 11.725 39.628 18.483 57.753 30.208 10.547 6.758 20.992 15.513 31.54 22.835 5.222 3.891 8.55 10.24 15.257 12.646v-1.484c-3.38-4.352-4.3-10.701-7.629-15.565-4.761-4.864-9.574-9.216-14.336-14.08a229.6 229.6 0 0 0-49.664-49.152c-15.309-10.752-48.742-25.293-54.937-43.264l-.973-1.024c10.547-.922 22.989-4.864 32.973-7.783 16.23-4.403 31.027-3.379 47.77-7.782 7.68-1.946 15.257-4.403 22.937-6.758v-4.506c-8.653-8.704-14.848-20.429-23.86-28.672a641.5 641.5 0 0 0-78.847-59.853c-14.848-9.728-33.895-16.025-49.664-24.32-5.735-2.918-15.258-4.352-18.637-9.216-8.55-10.752-13.363-24.832-19.559-37.478a1217 1217 0 0 1-39.168-84.685c-8.601-18.944-13.824-37.888-24.32-55.45-49.254-82.688-102.707-132.761-184.832-181.913-17.715-10.24-38.707-14.643-61.132-19.968-11.93-.512-23.86-1.485-35.84-1.946-7.68-3.43-15.31-12.646-21.965-17.05-27.239-17.51-97.383-55.449-117.453-5.324-12.902 31.641 19.098 62.771 30.054 78.848 8.141 11.161 18.637 23.808 24.372 36.454 3.328 8.243 4.3 17.05 7.68 25.805 7.577 21.402 14.745 45.21 24.78 65.178 5.274 10.24 10.957 20.94 17.664 30.156 3.84 5.376 10.496 7.783 11.981 16.538-6.656 9.728-7.168 24.32-11.008 36.506-17.203 54.988-10.547 123.084 13.824 163.43 7.68 12.186 25.805 38.912 50.176 28.672 21.504-8.704 16.691-36.454 22.887-60.774 1.433-5.837.512-9.728 3.328-13.62v1.024c6.707 13.568 13.414 26.676 19.61 40.346 14.847 23.808 40.6 48.64 62.105 65.178 11.417 8.755 20.48 23.859 34.816 29.184v-1.434h-.922c-2.867-4.403-7.168-6.349-11.008-9.728a238.3 238.3 0 0 1-24.832-29.184 625 625 0 0 1-53.453-88.576c-7.68-15.104-14.336-31.642-20.53-46.694-2.868-5.837-2.868-14.592-7.68-17.51-7.169 10.7-17.665 19.967-22.887 33.023-9.063 20.992-10.035 46.746-13.415 73.523-1.894.512-.921 0-1.894.973-15.258-3.891-20.48-19.968-26.266-33.536-14.336-34.611-16.742-90.06-4.3-129.945 3.328-10.24 17.715-42.292 11.98-52.02-2.918-9.318-12.441-14.592-17.715-21.913a193.6 193.6 0 0 1-17.152-31.13c-11.469-27.238-17.254-57.446-29.593-84.685-5.735-12.646-15.821-25.804-23.91-37.427-9.063-13.158-19.098-22.374-26.266-37.939-2.356-5.376-5.735-14.131-1.895-19.968.922-3.891 2.867-5.376 6.656-6.349 6.195-5.325 23.91 1.485 30.106 4.403 17.664 7.27 32.46 14.132 47.257 24.32 6.656 4.864 13.824 14.08 22.426 16.538h10.086c15.258 3.38 32.461.973 46.797 5.376a303 303 0 0 1 68.762 33.536 428.85 428.85 0 0 1 148.992 166.4c5.734 11.162 8.14 21.402 13.363 33.075 10.035 23.86 22.477 48.18 32.46 71.527 10.036 22.886 19.61 46.182 33.946 65.177 7.168 10.24 35.84 15.565 48.692 20.941 9.574 4.352 24.37 8.243 32.972 13.62 16.23 10.188 32.461 21.862 47.77 33.074 7.578 5.837 31.488 18.023 32.922 27.75z"/><path fill="#0a5af6" d="M321.74 277.606a5.12 5.12 0 0 0-3.583-1.536 80.3 80.3 0 0 0-20.992 2.612 5.12 5.12 0 0 0-3.789 4.966v.973a5.12 5.12 0 0 0 2.662 4.505c2.048 3.482 4.506 6.503 6.81 9.216l1.946 2.15c2.048 2.305 3.89 4.404 5.478 6.708 1.843 3.686 3.584 7.424 5.325 11.213l.205.46 5.324 11.265a5.12 5.12 0 0 0 8.244 1.382 35 35 0 0 0 .716-.768c8.192-6.144 11.776-15.667 11.776-28.16a5.12 5.12 0 0 0-1.228-3.277 16 16 0 0 1-2.56-4.454 25.75 25.75 0 0 0-10.24-12.595l-1.741-1.23c-1.843-1.28-3.226-2.252-4.352-3.43"/></svg>