<svg xmlns="http://www.w3.org/2000/svg" width="200" height="200" class="icon" viewBox="0 0 1024 1024"><path fill="#0181fd" d="M906.598 322.509v265.113a791.9 791.9 0 0 0-333.516 39.783 1051.55 1051.55 0 0 1-418.919 54.886V416.768c96.205 9.216 195.687.82 293.53-27.034 13.21-3.788 26.726-8.09 39.936-12.39a1055 1055 0 0 1 419.225-54.886h-.256z"/><path fill="#ffa005" d="M496.589 256a591 591 0 0 1-44.851 17.05c-7.066 2.406-14.08 4.608-21.35 7.014-5.684 1.638-11.367 3.533-17.306 5.12-86.784 24.064-174.592 30.566-259.482 21.094v88.628a770.3 770.3 0 0 0 303.77-31.079l22.732-7.27a762 762 0 0 0 43.52-16.487L496.332 256z"/><path fill="#07c846" d="M563.866 748.39a616 616 0 0 1 44.902-17.05c7.014-2.406 14.029-4.607 21.35-7.014 5.632-1.587 11.316-3.481 17.255-5.12a685.6 685.6 0 0 1 259.481-21.094v-88.627a770.3 770.3 0 0 0-286.72 25.958c-5.734 1.587-11.417 3.226-17.05 5.12l-22.732 7.27a762 762 0 0 0-43.52 16.487l27.34 84.07z"/></svg>