<svg xmlns="http://www.w3.org/2000/svg" width="200" height="200" class="icon" viewBox="0 0 1024 1024"><path fill="#1f80c4" d="M158.208 333.005a20.5 20.5 0 0 0-3.942 8.601h-.154v84.122a19.87 19.87 0 0 0 11.366 16.691l269.364 158.26a136.45 136.45 0 0 0 125.49 0l269.569-157.697a19.92 19.92 0 0 0 11.366-16.742l1.024-83.968-217.293-116.838-160.41 92.979a19.35 19.35 0 0 0-11.366 16.691v83.814c2.1 5.888 6.144 10.957 11.367 14.336 2.56-35.84 42.496-58.265 42.496-58.265l116.94-66.765 152.577 82.893-216.27 128.307a137.47 137.47 0 0 1-125.44 0l-226.508-133.58 226.406-133.53a126.4 126.4 0 0 1 62.823-15.207V153.6a126.8 126.8 0 0 0-62.823 15.155l-269.312 158.31a20.5 20.5 0 0 0-7.321 5.94zm679.117 236.851a19.87 19.87 0 0 0 3.43-9.882l-.358-83.302a19.87 19.87 0 0 1-11.367 16.691L560.026 651.571a136.45 136.45 0 0 1-125.543 0L164.966 492.75a19.87 19.87 0 0 1-11.366-16.743v83.456a19.87 19.87 0 0 0 11.366 16.692l269.517 158.412a137.42 137.42 0 0 0 125.543 0l269.312-157.9a19.87 19.87 0 0 0 7.987-6.81m3.43 119.654a19.87 19.87 0 0 1-11.366 16.692L560.026 863.949a136.45 136.45 0 0 1-125.543 0L164.966 705.74a19.87 19.87 0 0 1-11.366-16.794v-83.456a19.71 19.71 0 0 0 11.366 16.691l269.517 158.413a137.47 137.47 0 0 0 125.543 0l269.004-157.9a19.56 19.56 0 0 0 11.367-16.692l.358 83.456z"/></svg>