<svg xmlns="http://www.w3.org/2000/svg" width="200" height="200" class="icon" viewBox="0 0 1024 1024"><path fill="#326690" d="M637.03 195.02c46.746-10.137 96.82-8.857 141.824 8.244a188.6 188.6 0 0 1 79.719 59.085c9.881 12.595 11.161 29.44 11.776 44.902.512 36.813-6.861 73.216-16.23 108.544-17.92 65.536-45.057 128.359-79.156 186.829a170 170 0 0 1-11.11 16.589l-1.28-6.503c4.25-11.264 10.445-21.862 12.851-33.792 8.55-33.792 1.331-68.454-1.74-102.4-3.226-32.05 7.577-63.232 7.32-95.232 1.23-15.616-4.863-30.412-10.854-44.492-21.504-48.64-55.808-91.956-99.737-121.703-10.701-7.424-22.682-12.646-33.383-20.07"/><path fill="#326690" d="M507.29 199.475a220.16 220.16 0 0 1 163.532 44.954 261.9 261.9 0 0 1 83.61 116.94c-26.675-.972-56.986-2.047-78.592 16.692-19.558 16.691-22.118 45.21-17.715 69.12 10.24 56.985 43.469 105.318 67.993 156.518 6.503 12.032 15.258 22.528 23.552 33.28-9.932 5.069-20.992 9.882-26.624 20.173-9.83 16.077-6.348 35.686-8.806 53.555-5.632 50.023-11.264 100.096-19.302 149.76-3.79 23.808-13.824 49.152-36.096 60.98-22.733 11.775-49.255 19.097-74.906 15.103-24.32-4.3-39.629-27.238-46.592-49.612-5.018-18.74-5.53-38.298-6.963-57.55a1793 1793 0 0 1-1.331-139.775c1.024-18.227-8.192-37.171-24.27-46.08-7.782-4.352-16.895-4.967-25.6-5.632 6.862-34.304 27.495-63.847 34.56-98.048 9.217-42.291 4.097-86.323-5.273-128.103-4.608-20.838-20.275-39.27-41.165-44.339-32.153-8.192-64.512 4.557-93.286 18.074 3.584-47.207 16.128-95.54 44.698-133.888a132.56 132.56 0 0 1 88.576-52.122"/><path fill="#326690" d="M262.246 203.264c51.2-9.933 103.68.614 152.781 15.77a228.7 228.7 0 0 0-48.384 83.456 340.9 340.9 0 0 0-16.384 129.126c2.048 30.72.973 61.491-3.123 92.006a125.65 125.65 0 0 0 39.68 107.47c-19.866 23.5-40.96 45.926-60.211 69.99-8.55 10.137-19.968 22.17-34.509 19.148-16.947-4.966-27.75-20.582-37.171-34.662-25.549-41.267-40.96-87.86-55.04-134.144-15.77-54.784-29.082-110.438-36.762-167.014-3.789-43.008-1.433-89.19 20.378-127.488 16.333-29.082 46.745-47.565 78.745-53.607zm437.095 198.605c-6.298 5.222.512 12.953 5.837 15.462 13.107 7.731 30.976-3.072 31.436-18.227a37.53 37.53 0 0 0-37.273 2.765m-6.963-7.168c18.841-13.466 43.468-10.445 65.228-9.114-.921 30.413-10.24 60.263-7.168 90.931 2.714 37.888 13.568 78.592-4.096 114.535-23.705-47.667-54.374-93.184-65.024-146.279-3.072-16.896-3.788-38.297 11.06-50.022z"/><path fill="#326690" d="M439.45 402.79c-3.584 1.332-7.424 3.79-6.656 8.192 2.56 15.207 22.681 24.423 35.328 15.002 5.58-3.174 11.417-11.93 5.017-17.203-9.216-7.527-22.528-9.011-33.69-5.99m-66.356 11.623c23.604-15.463 51.2-27.495 79.821-25.856a34.82 34.82 0 0 1 32.051 25.958c13.005 52.327 16.999 110.49-7.884 160-8.55 19.149-15.872 38.861-21.812 58.983-41.37.41-76.544-34.919-83.916-74.752-5.018-22.528 1.536-45.159 2.304-67.738 1.74-25.498-.052-51.098-.512-76.595zm372.941 251.29c6.144-4.609 14.848-8.756 21.965-3.79 30.106 16.026 65.126 8.193 97.178 4.301-19.61 19.252-46.695 28.263-73.37 31.181-17.664 2.1-35.994 2.765-53.043-3.174.102-9.728-.41-21.3 7.27-28.519m-303.36 37.324c17.306-9.42 24.167-30.157 40.346-40.755 17.561-2.56 30.464 23.91 17.152 36.403-26.01 35.584-77.978 42.394-115.559 23.04 18.535-8.704 40.192-8.038 58.061-18.688"/></svg>