<svg xmlns="http://www.w3.org/2000/svg" width="200" height="200" class="icon" viewBox="0 0 1024 1024"><path fill="#a32422" d="M844.8 724.855c-38.451 20.173-238.234 102.298-281.242 124.877-43.008 22.528-66.048 21.914-99.737 5.837-33.639-16.128-245.504-102.246-283.904-120.627-19.354-9.063-29.184-16.845-29.184-24.064v-73.114s276.685-60.057 321.382-76.237c44.647-16.179 60.109-16.588 98.048-2.662s265.421 54.989 303.002 68.608v72.038c0 7.476-8.653 14.848-28.314 25.293v.051z"/><path fill="#dc382c" d="M844.8 652.1c-38.451 20.02-238.234 102.195-281.242 124.365s-66.048 21.965-99.737 5.94c-33.69-16.078-245.504-102.196-283.904-120.423s-39.117-30.925-1.485-45.67c37.632-14.695 248.986-97.434 293.683-113.716 44.647-16.281 60.109-16.64 98.048-2.662 37.94 13.926 236.851 92.98 274.227 106.752 37.376 13.721 39.066 25.088.41 45.056z"/><path fill="#a32422" d="M844.8 605.815c-38.451 20.07-238.234 102.196-281.242 124.365-43.008 22.17-65.894 21.965-99.532 5.837-33.69-16.18-245.76-101.837-284.16-120.115-19.303-9.216-29.184-16.896-29.184-24.218v-72.806s276.736-60.263 321.433-76.442c44.647-16.179 60.109-16.64 98.048-2.56 37.94 14.131 265.421 54.784 303.002 68.506v72.09c0 7.475-8.653 15.001-28.314 25.343z"/><path fill="#dc382c" d="M844.8 532.753C806.298 552.875 606.566 635 563.507 657.17c-43.008 22.118-66.048 22.016-99.737 5.888C430.13 646.98 218.266 561.17 179.917 542.788c-38.4-18.33-39.117-30.822-1.536-45.568 37.632-14.694 249.037-97.638 293.683-113.459 44.698-15.872 60.109-16.845 98.048-3.072 37.99 13.773 236.902 93.491 274.227 106.854 37.376 13.312 39.117 25.088.512 45.056v.154z"/><path fill="#a32422" d="M844.8 482.27c-38.451 20.121-238.234 102.297-281.242 124.416-43.008 22.118-65.894 21.965-99.532 5.94-33.69-16.078-245.76-101.991-284.16-120.32-19.303-9.063-29.184-16.795-29.184-24.065v-73.114s276.736-60.057 321.433-76.185c44.647-16.128 60.109-16.64 98.048-2.714s265.319 54.99 302.9 68.71v72.04c.102 7.577-8.551 15-28.263 25.292"/><path fill="#dc382c" d="M844.8 409.31c-38.451 19.763-238.234 102.4-281.242 124.416-43.008 21.913-66.048 21.862-99.737 5.888-33.69-16.026-245.504-102.042-283.904-120.32-38.4-18.227-39.117-30.874-1.485-45.568 37.632-14.746 248.986-97.639 293.683-113.715 44.647-16.128 60.109-16.59 98.048-2.663 37.94 13.875 236.851 92.98 274.227 106.701 37.376 13.722 39.066 25.14.41 45.107z"/><path fill="#fff" d="m523.264 305.63 47.616-15.667-12.902 30.873 48.486 18.176L544 345.515l-14.08 33.792-22.63-37.684-72.295-6.502 54.016-19.456-16.281-29.9 50.483 19.865zm2.97 196.966L409.395 454.06l167.424-25.703zM364.288 357.751c49.306 0 89.446 15.565 89.446 34.56s-40.243 34.56-89.446 34.56c-49.254 0-89.549-15.564-89.549-34.56 0-18.995 40.141-34.56 89.549-34.56"/><path fill="#741113" d="m680.602 348.177 99.02 39.117-98.918 39.168-.102-78.336z"/><path fill="#ac2724" d="m680.602 348.177.102 78.285-10.752 4.147-99.02-39.117z"/></svg>