<svg xmlns="http://www.w3.org/2000/svg" width="200" height="200" viewBox="0 0 400 400"><path fill="#1a6fef" d="M168 22c-3.6 1-7.8 2.3-9.5 2.9-1.6.5-6.3 1.7-10.4 2.6s-9 2.7-11 4.1c-1.9 1.3-4.6 2.4-5.8 2.4s-2.5.4-2.8 1c-.3.5-1.5 1-2.5 1-1.1 0-3.6 1.1-5.6 2.5s-4.2 2.5-4.9 2.5-1.8.7-2.5 1.4c-.6.8-2.7 2-4.6 2.6-1.9.7-5.2 2.7-7.2 4.6s-4.5 3.7-5.5 4-2.9 1.6-4.2 3c-1.3 1.3-2.9 2.4-3.6 2.4-.6 0-2 1.1-3.1 2.5S82.2 64 81.4 64s-1.4.6-1.4 1.2c0 .7-4.1 5.3-9 10.2-5 4.9-9 9.2-9 9.6 0 .3-1.3 2.2-3 4-1.6 1.8-3 3.9-3 4.6 0 .6-1.2 1.9-2.6 2.9-1.4.9-3.5 3.6-4.5 6-1.1 2.4-2.4 4.7-2.8 5-1.2.7-6.1 9.4-6.1 10.7 0 .5-1.6 4.2-3.6 8.1-3.9 7.9-6.4 14.4-6.4 16.7 0 .8-.6 2.6-1.3 4-1.9 3.6-4.3 12.3-5.9 21-1.7 10-1.8 54.6 0 65 .7 4.1 2.4 10.9 3.8 15s3.2 10.2 4.1 13.5 2.2 6.7 2.9 7.6c.8.8 1.4 2.2 1.4 2.9s.6 2.1 1.4 2.9c.7.9 2.6 4.8 4.1 8.8s3.8 8.2 5.1 9.4c1.3 1.3 2.4 3 2.4 3.9s1.8 3.6 4 6 4 4.8 4 5.3c0 1.4 4.6 6.9 12.8 15.3 3.9 4.2 7.2 7.9 7.2 8.3s3 3 6.7 5.7 8.1 6.1 9.7 7.6c1.7 1.6 3.5 2.8 4.1 2.8.7 0 2.2 1.2 3.6 2.6 1.3 1.5 4.3 3.5 6.6 4.6 2.3 1 4.5 2.3 4.8 2.8.3.4 1.9 1.1 3.6 1.5 1.6.4 3.8 1.5 4.7 2.5s3.3 2.1 5.2 2.5c2.9.5 4.3.1 8.3-2.5 2.6-1.8 4.7-3.6 4.7-4.2 0-.5 2-1.8 4.4-2.9 2.5-1.1 4.8-2.8 5.1-3.9.3-1 1.6-2.2 2.8-2.6 1.2-.3 4-2.3 6.2-4.4 2.2-2 6-5.1 8.5-6.7 2.5-1.7 6-4.5 7.7-6.2 1.8-1.7 3.8-3.1 4.4-3.1.7 0 2.7-1.8 4.6-4s3.9-4 4.5-4 3.5-2.3 6.5-5c3-2.8 5.8-5 6.2-5s1.4-1.2 2.1-2.6c.8-1.4 2.7-3.2 4.2-4 4.3-2.3 30-27 42.9-41.4 11.8-13.2 13.9-15.7 13.9-16.9 0-.6 1.7-3 3.8-5.4 2.1-2.3 4.5-5.8 5.2-7.7.8-1.9 2.5-5.3 3.9-7.5s3-7.1 3.7-11c1-6 1-7.7-.4-12-2.1-6.1-7.5-9.9-13.2-9.1-9.4 1.3-12.5 2.2-18 5.1-10.9 5.9-19.2 10.9-20.3 12.4-.6.9-2.7 2.3-4.5 3-1.8.8-4.2 2.7-5.3 4.2-1.1 1.6-2.8 2.9-3.8 2.9-.9 0-2.7.9-3.9 2s-2.7 2-3.5 2c-.7 0-2.4 1.2-3.8 2.6-1.3 1.4-4 3.4-5.9 4.4s-4.6 3-5.9 4.4c-1.4 1.4-2.9 2.6-3.4 2.6-1.9 0-12 5.4-14.5 7.7-1.4 1.3-3.1 2.3-3.8 2.3-1.2 0-10.7 4.3-15.4 6.9-3.5 2-11.8 3.1-22.6 3.1-11.6 0-18.7-1.2-21.2-3.7-.7-.7-1.8-1.3-2.3-1.3-.6 0-2-1.1-3.3-2.5s-2.8-2.5-3.3-2.5c-1 0-11.3-12.3-11.3-13.5 0-.5-.6-1.6-1.3-2.4-2.4-2.9-3.7-9.7-3.7-19.2.1-11.8 2.2-20.8 6.9-28.9.5-.8 2.7-5.3 5-10 5.2-10.6 7.3-14.2 12.2-20.6 2.1-2.8 3.9-5.8 3.9-6.7s.9-2.1 2.1-2.7c1.1-.6 3.2-3 4.7-5.4 3-4.7 9-12 14-17.1 1.7-1.8 3.2-3.6 3.2-3.9 0-.8 2.7-3.9 7.8-8.8 2.3-2.3 4.2-4.7 4.2-5.3 0-.7 2.1-3 4.8-5.1 2.6-2.1 5.1-4.5 5.6-5.4.6-.8 2.5-2.8 4.3-4.4s3.3-3.6 3.3-4.3c0-.8.8-1.7 1.8-2 .9-.4 2.9-1.5 4.4-2.6 2.1-1.6 3.6-1.8 7-1.4 9.5 1.4 19.9 4 26.8 6.6 6.5 2.5 16.3 5.1 19.2 5.1 2.1 0 8.8 3.7 8.8 4.8 0 .4-1.9 1.7-4.3 3s-5.7 3.5-7.4 5c-4.3 3.9-12 10.2-18 14.7-2.9 2.1-5.3 4.3-5.3 4.7s-1.3 1.4-2.8 2.2c-1.6.8-4.5 3-6.4 4.8s-5.9 5.3-8.7 7.8c-5.9 5-33.4 32.5-39.6 39.4-2.2 2.5-4.5 5.6-5 7-.6 1.4-2 3.5-3.2 4.8-2.4 2.6-3.8 5.8-5.9 13.6-1.8 6.9-1.8 7.9.9 13 1.7 3.4 3.1 4.7 6.2 5.8 4.8 1.7 12.9 1.8 19.3.3 5.7-1.3 5.9-1.4 9.7-3.9 3.4-2.3 3.5-2.3 9.6-4.5 2.5-.9 5.7-2.6 7-3.9 1.3-1.2 4-2.8 5.9-3.6s4.6-2.1 6-3.1c8.2-5.5 12.5-7.9 14.1-7.9.9 0 1.9-.6 2.2-1.3.2-.6 4.4-3.4 9.3-6s9.6-5.2 10.4-5.6c3.1-1.9 12-5.1 13.9-5.1 1.1 0 2.3-.5 2.7-1.1.9-1.6 7.1-4.1 12.9-5.2 6.9-1.4 29.2-1.3 33.8 0 2.2.6 4.9 2.1 6.2 3.3 1.2 1.2 4 3.1 6.2 4.3 4 2.2 12.3 10.6 12.3 12.4 0 .6.8 2.1 1.9 3.4 1 1.3 2.2 3.9 2.6 5.7s1.3 4.5 2.1 6c1.7 3.3 1.9 24.9.3 30.2-.6 1.9-1.7 6.3-2.4 9.7-.8 3.5-2.1 7.7-2.9 9.5s-2 5.1-2.7 7.3c-1.2 3.8-4 10.2-5.9 13.5-.4.8-1.6 3.3-2.6 5.5-.9 2.1-3.1 6.2-4.9 9-1.8 2.7-3.5 6.2-3.9 7.7-.3 1.5-1.9 4.2-3.5 6s-4 5.8-5.4 9c-1.4 3.1-3.5 6.2-4.6 7s-2.5 2.7-3.2 4.3c-1.4 3.3-13 19.6-16.6 23.4-1.3 1.3-2.3 3-2.3 3.7s-2.2 3.6-5 6.6c-2.7 2.9-5 5.7-5 6.1 0 .5-1.5 2.3-3.2 4.1-7.3 7.3-8.1 8.5-6.4 9.2.9.4 2.5-.1 3.5-1s3-1.6 4.5-1.6c4.2 0 11.4-2.1 16.4-4.7 2.6-1.4 6.7-3.1 9.2-4 2.5-.8 5.2-2.1 6-2.8.8-.6 4.6-2.7 8.4-4.5s8.3-4.5 10-6 5.2-3.9 7.9-5.5c2.6-1.5 5.2-3.5 5.7-4.5s2.9-2.9 5.3-4.3c2.3-1.4 4.9-3.7 5.6-5.1.8-1.3 2.6-3 4.2-3.6 1.6-.7 3.1-2.1 3.4-3.1.4-1.1 2.6-3.8 5.1-6.1 2.4-2.3 4.4-4.6 4.4-5.2s1.6-2.9 3.5-5.1c2-2.2 5-6.2 6.8-9 1.7-2.7 3.7-5.5 4.3-6 .6-.6 2.3-4.1 3.8-7.9s3.7-8.3 5-10 2.9-5.4 3.6-8.1c.7-2.8 2.6-7.6 4.2-10.7 1.5-3.2 2.8-6.6 2.8-7.8 0-1.1.4-3.9 1-6.2 3.5-15.9 5.4-41.6 4.1-55.7-2.6-26.9-5.7-43-9.2-47.6-1.1-1.5-3.9-9.8-3.9-11.7 0-.9-.6-2.3-1.3-3-2.2-2.2-8.7-15.5-8.7-17.7 0-.6-.6-1.4-1.4-1.8-.7-.4-2.5-2.7-4-5.1-1.5-2.3-3.4-5.1-4.4-6.2-2.8-3.1-3.8-4.4-6.6-8.8-1.4-2.3-3.7-4.9-5.1-5.8-1.5-.9-3.3-3-4-4.5-.8-1.5-2.8-3.6-4.4-4.5-1.6-1-3.5-2.7-4.1-3.8-.7-1.2-3.9-4.1-7.2-6.6-3.2-2.5-7.2-5.5-8.8-6.8-1.5-1.2-3.3-2.2-3.9-2.2-.7 0-2.7-1.6-4.7-3.5-1.9-1.9-4.7-3.8-6.2-4.1-1.5-.4-3.8-1.5-5.1-2.6-1.3-1-3-1.8-3.7-1.8s-1.9-.7-2.8-1.5c-.8-.9-4.1-2.4-7.3-3.4s-7.6-2.9-9.8-4.1c-3.7-2.2-6.4-3-14-4.5-3-.6-8.2-2-18.4-4.9-8.3-2.5-55.1-2.1-64.1.4"/></svg>