<svg xmlns="http://www.w3.org/2000/svg" width="200" height="200" class="icon" viewBox="0 0 1024 1024"><path fill="#0f80cc" d="M691.61 187.597H211.917a58.52 58.52 0 0 0-58.317 58.368v528.793c0 32.308 26.522 58.368 58.368 58.368h315.75c-3.379-156.672 50.637-461.824 163.892-645.53"/><path fill="#003b57" d="M803.482 170.189c-32.768-29.389-72.807-17.306-111.872 17.408-5.786 5.273-11.52 11.059-17.306 16.896-67.072 71.321-129.74 203.417-148.992 304.128 7.68 15.462 13.466 34.713 17.306 49.664 1.024 3.891 1.945 7.27 2.457 10.598 1.895 7.27 2.407 12.083 2.407 12.083s-.512-2.406-2.868-9.625c-.512-1.485-1.024-2.867-1.484-4.813-.512-.973-.512-1.485-.973-2.458-4.301-10.086-16.384-31.744-21.658-40.96-4.352 13.466-8.704 26.01-12.083 37.581 15.462 27.955 24.576 76.698 24.576 76.698l-4.813-14.029c-3.379-9.626-20.736-39.526-24.576-46.746-6.758 25.6-9.625 42.906-7.168 47.258 4.762 8.192 9.575 22.17 13.415 37.58 9.216 35.226 15.462 77.671 15.462 77.671s0 2.867.512 7.168a662 662 0 0 0 1.894 87.757c2.868 36.66 8.653 67.994 15.872 84.838l4.864-2.867c-10.598-33.28-14.95-76.185-13.004-126.31 2.867-76.186 20.224-168.704 52.992-264.704 54.988-145.101 131.174-261.274 200.55-316.672-63.59 57.344-149.402 242.944-175.002 311.91-28.928 77.107-49.152 149.402-61.696 218.368 21.197-65.075 89.703-92.57 89.703-92.57s33.69-41.471 72.755-100.761c-23.603 5.325-62.208 14.438-75.162 20.275-19.302 8.192-24.166 10.547-24.166 10.547s61.747-37.58 115.251-54.937c73.728-115.712 153.344-279.143 72.807-350.976"/></svg>