<svg xmlns="http://www.w3.org/2000/svg" width="200" height="200" class="icon" viewBox="0 0 1024 1024"><path fill="#8a8a8a" d="M703.5 221.2c58 19.5 104.2 40 138.6 61.6 34.9 21 63.6 42.1 86.7 62.1 23.1 19.5 38.5 36.4 46.2 49.8 7.7 13.3 9.2 20.5 3.6 21-118 18-245.3 49.8-382.4 93.9 2.1 5.6 4.6 13.3 7.7 24.6s6.2 34.4 9.8 69.8c3.1 35.4 3.1 72.4-.5 109.8-4.1 37.5-14.9 84.7-32.8 140.6-18.5 55.9-44.1 111.4-76.5 166.8-3.1 4.6-32.8 3.1-89.8-4.1-128.8-16.9-227.4-46.2-297.2-86.7C9 865.3 17.8 785.8 143 691.4c61.6-47.7 109.3-97 144.2-148.8s54.9-101.6 60.1-148.8c5.1-47.2-2.1-91.4-21.6-132.9-19.5-42.1-50.8-77-92.9-105.7-20.5-13.3-27.7-28.2-21-44.1C226.1 74.9 298.5 38 426.8 0c-1 0 3.6 14.4 12.8 43.1 9.2 28.2 21 58 35.9 87.8s28.7 45.2 42.6 46.7c65.8 8.7 128.4 23.6 185.4 43.6M73.7 810.9c-.5.5-.5 5.6.5 14.9 1 9.2 6.2 22.1 15.4 38.5 9.8 15.9 24.1 30.8 43.1 44.7l21-28.2c13.3-18 27.7-37.5 42.1-59 14.4-21.6 23.1-34.9 25.1-41.1.5 0-8.7 2.6-28.2 7.7s-41.1 9.8-65.2 14.9c-24 5.6-42 7.6-53.8 7.6m71.9-112.4c-16.4 13.3-28.7 26.2-38 36.4-8.7 10.9-15.4 22.1-21.6 33.4-5.6 11.8-9.2 19.5-9.8 23.6s-1.5 7.2-2.6 9.2c13.9 0 65.2-13.3 152.9-41.1-17.5-40-25.7-72.4-24.1-97-20.9 9.9-39.9 22.2-56.8 35.5m2 223.3 183.2-67.2C299 837.1 269.3 815 241 787.3l-99 126.8zm11.3 2.1c12.8 11.8 29.3 22.1 50.8 30.8 21.6 8.7 36.4 13.3 46.2 15.4 9.8 1.5 16.4 3.1 22.1 4.6l67.2-101.1zm73.9-274.1c1.5 46.2 7.2 75.4 16.9 87.8 22.6-22.6 45.7-66.7 67.7-130.9-9.1 3.6-37.4 17.9-84.6 43.1m25.7-555.4c-6.7 4.6-12.8 9.8-19 15.9s-8.2 9.8-6.2 11.8c4.1 4.6 32.8 12.8 86.7 25.1l-51.3-60.1zm-18 524.6 141.1-123.2c-33.9 14.9-65.7 35.4-93.9 62.1zm14.4 0c14.4-9.8 71.3-37 169.9-82.1.5-10.8-1-20-4.6-28.7-4.1-8.2-6.7-13.3-9.2-15.9-2.6-2.1-4.6-3.6-6.7-4.6-5.2 9.6-55 53.3-149.4 131.3m75.9-384.4-19-62.1-50.8-17c13.9 9.8 37.5 35.9 69.8 79.1m-64.1 533.2c11.8 15.9 26.7 30.8 44.1 44.1 17.5 13.3 29.8 21.6 36.4 25.1 7.2 3.6 12.8 6.2 16.4 8.2 26.2-38.5 44.7-83.1 54.9-132.9-9.6 6.3-60.5 25.2-151.8 55.5m158.1-82.6c-17.5-15.9-31.8-31.8-43.6-48.2-11.8-15.9-18.5-26.7-21-31.8s-4.1-9.2-4.6-12.8c.5 2.1 0 5.6-1.5 9.8-1.5 4.6-4.1 9.8-6.7 15.9-2.6 6.2-6.2 12.8-10.8 21s-8.7 15.4-12.8 23.1c-4.1 7.2-8.7 15.4-12.8 24.1-4.6 8.2-8.7 15.9-11.8 22.1l-11.8 20c-3.6 6.2-5.6 9.8-7.2 11.8-1.5 2.1-2.6 3.6-3.1 5.1 69.1-21.1 118.4-41.1 147.7-60.1m-3.6-577.9c-12.8-2.6-26.7-5.1-40-7.7s-28.7-6.2-46.7-9.8c-17.5-3.6-29.8-6.2-35.9-7.7-6.2-1.5-11.8-2.6-15.9-4.1 1.5 4.6 24.6 30.8 69.8 77h19l73.9-46.2c-3.2 1-11.4.5-24.2-1.5M287.7 983.9c35.9-2.1 116.5-27.2 241.7-74.9-53.4-1-106.2-12.8-158.1-34.9zM400.6 89.3c24.6 3.6 39 5.1 43.1 5.1 1-2.1 2.1-4.1 2.1-6.7s-1.5-7.7-3.6-14.9c-2.6-7.7-4.6-14.4-6.2-20-2.1-5.6-4.1-12.8-7.2-20s-5.1-12.8-6.2-14.9-1.5-4.1-1.5-5.6c-1 0-10.8 4.6-29.8 12.8-19.5 8.2-39.5 17.5-60.1 27.2-20.5 9.8-31.8 14.9-33.9 16.9-2.1 2.1 8.7 5.1 31.8 9.2 22.8 3.7 47.4 7.8 71.5 10.9m-68.7 100.1c4.6 10.8 9.8 23.6 13.9 37 4.6 12.8 7.2 22.1 7.2 26.2l84.7-63.1-112.9-16.9zm-7.2 320.8c18.5-11.8 39.5-28.2 62.1-48.2-6.2-8.2-15.4-13.9-28.7-18-1.1 7.1-11.9 29.2-33.4 66.2m208.9 411.6c-63.1 26.7-132.4 47.2-208.9 62.1 26.2 14.4 82.6 25.7 168.9 32.8 8.2-9.2 21-41 40-94.9M363.7 291.5c4.6 2.1 7.7 35.4 8.2 100.6 18.5-16.9 43.6-40.5 73.9-70.8-16.9-10.8-44.1-21-82.1-29.8m102.1 3.1c1-23.1.5-42.6-2.6-59.5s-5.6-27.7-7.7-31.8-4.1-7.2-5.1-8.2l-79 68.3c14.9 2.5 46.2 13.2 94.4 31.2m-93.9 116.5c8.7 6.2 22.6 16.9 41.1 32.8 20.5-25.1 34.9-59.5 44.1-102.7-6.7 4.7-34.9 27.8-85.2 69.9m28.2 223.3c11.8 14.4 20 23.6 25.1 27.2s9.2 6.7 12.8 8.7c7.2-18.5 11.8-38 14.4-58.5 2.1-20 2.6-33.4 1.5-40.5l-2.1-18-80.1 32.8c7.4 18 17.1 33.9 28.4 48.3m170.4 133.4c-4.1 8.7-67.2 37.5-188.9 86.7 13.9 15.9 64.7 31.8 151.9 48.2 15-18.9 27.3-63.5 37-134.9m-178.1 62.1c8.7.5 28.7-5.6 62.1-19 32.8-13.3 57-24.1 73.9-31.8 16.4-8.2 30.8-14.4 42.1-20-21.6-4.6-61.1-22.6-119.1-52.9zm65.2-707.2-61.1 37 82.1 12.8zm95 270.5c-50.8 29.8-93.4 52.4-127.8 68.8 8.2 6.2 14.9 28.7 21 68.8 6.7-9.8 42.1-56 106.8-137.6m0-24.2-73.9-39.5c.5 5.1-2.1 16.4-7.2 33.4-5.6 17.5-9.8 30.8-12.8 39.5-3.1 9.2-5.6 16.4-7.7 21.6zm-85.7-173.5 7.2 11.8c4.6 8.7 7.7 20 9.8 34.4 1.5 13.9 0 30.8-4.6 49.8l123.2-67.7zm0 474.3L492 657c16.9-8.2 35.4-16.9 54.4-27.7s30.8-18 35.4-22.6l-104.2-62.1c0 65.7-4.1 107.2-10.7 125.2m114.9 59c3.1-10.8 6.2-26.2 8.7-46.7 2.1-20.5 2.6-40 .5-58.5l-26.2 14.9c-16.9 9.8-35.4 20.5-55.9 30.8-21 10.8-34.9 16.9-42.1 19l14.9 11.8c10.8 7.7 25.1 15.4 43.6 25.1 18 9.8 34.9 15.9 50.8 20zm86.3-272c-14.4-22.6-43.6-44.1-86.7-65.2-4.1 9.8-40.5 52.4-108.8 128.8 17.9-6.6 83.1-28.2 195.5-63.6m-155.6 94.4c11.8 7.7 26.2 15.4 42.1 24.6s27.7 14.9 34.9 17.5l1-13.9q0-13.05-1.5-33.9c-1-13.9-2.6-25.7-4.6-34.9l-90.8 30.8zm114-323.8-123.7 80.1c13.9 4.1 40 16.9 79 40 29.8-50.8 44.7-90.9 44.7-120.1m15.4 0c.5 5.1-2.1 19-8.2 41.1-6.2 22.1-10.8 38.5-14.4 50.8-4.1 11.8-7.2 21-9.8 28.7 39-20 101.1-42.1 185.8-66.2-17.9-12.3-69.2-30.3-153.4-54.4m46.2 222.7c22.1-21 43.6-45.7 64.2-73.4 21-27.7 33.9-46.7 40-56.5 6.2-10.8 10.8-19 13.9-25.7-10.8.5-77 23.6-196.6 68.8 26.1 15 52.3 44.2 78.5 86.8m274-41c-4.6-10.8-19.5-26.2-44.7-47.2-25.1-20.5-44.1-35.4-57.5-44.7-12.8-9.8-24.6-16.9-33.9-23.1-10.8 30.8-46.7 81.1-106.2 149.4 30.4-11.3 111.5-23.1 242.3-34.4"/></svg>