<svg xmlns="http://www.w3.org/2000/svg" width="209.961" height="200" class="icon" viewBox="0 0 1075 1024"><path fill="#01808f" d="M224 303.667c-.922 19.456 7.936 30.003 20.275 39.731l238.387 195.994c22.016 18.534 23.808 30.874 8.807 54.733L374.938 771.533c-15.002 22.067-28.263 25.6-52.07 12.39l-74.19-42.393c-28.21-15.872-42.342-40.602-42.342-73.268V354.918c0-17.715 4.403-33.587 17.664-51.25m671.795 418.458c5.325-20.327-4.403-30.925-16.742-40.653-79.463-65.331-158.055-129.74-236.595-195.072-25.6-21.197-27.392-31.744-9.728-59.136 37.939-58.266 76.8-116.531 114.739-174.797 15.001-22.989 29.184-25.6 52.992-12.39 24.73 14.131 49.408 28.262 73.267 42.393 28.262 15.872 41.472 39.732 41.472 72.397v314.266c.922 18.534-4.403 36.198-19.405 52.94zM712.192 572.006c5.274 3.584 152.678 124.468 154.47 126.26 21.197 19.456 19.456 36.198-5.324 51.2-63.488 36.198-235.674 134.144-257.741 147.456-28.263 16.742-56.525 16.742-84.736 0-40.653-23.86-81.255-46.797-121.856-70.656-19.456-11.47-19.456-23.86 0-34.407 96.256-54.784 191.59-110.387 287.795-165.12 22.067-12.339 37.069-25.6 27.392-54.733"/><path fill="#febd02" d="M410.266 451.994a15286 15286 0 0 1-154.522-126.26c-21.146-19.456-19.405-36.198 5.325-51.2 63.539-36.198 235.725-134.144 257.792-147.456 28.211-16.742 56.473-16.742 84.736 0 40.601 23.86 81.203 46.797 121.856 70.656 19.405 11.47 19.405 23.808 0 34.407-96.256 54.784-191.59 110.387-287.847 165.12-22.016 12.339-37.068 25.6-27.34 54.733"/></svg>