<svg xmlns="http://www.w3.org/2000/svg" width="200" height="200" class="icon" viewBox="0 0 1024 1024"><path fill="#3578eb" d="M512 91.853c30.413 0 54.938 24.217 54.938 54.22S542.362 200.295 512 200.295a54.477 54.477 0 0 1-54.938-54.22A55.09 55.09 0 0 1 512 91.853m-362.854 258.56c30.412 0 54.937 24.166 54.937 54.17 0 30.003-24.525 54.271-54.937 54.271a54.477 54.477 0 0 1-54.887-54.272 55.81 55.81 0 0 1 54.887-54.22zm142.233 422.093c30.362 0 54.887 24.217 54.887 54.22s-24.525 54.221-54.887 54.221a54.477 54.477 0 0 1-54.937-54.22c0-30.004 24.524-54.221 54.937-54.221m441.293 0c30.362 0 54.886 24.217 54.886 54.22s-24.524 54.221-54.886 54.221a54.477 54.477 0 0 1-54.938-54.22c0-30.004 24.525-54.221 54.887-54.221zM592.384 412.314H431.616l-49.05 150.067L512 655.36l129.434-92.006-48.999-151.04zM436.48 399.77l55.91-170.445c-3.942-.973-8.806-1.895-12.748-3.84L422.81 399.77H236.442v12.544h181.401L370.79 554.65 223.693 449.126c-1.946 3.892-4.915 6.759-7.834 10.65l125.491 90.06 25.498 18.382-8.806 24.217-49.05 150.016c3.942 1.024 8.858 1.997 12.8 3.943l55.86-169.472 122.572 88.166-144.128 103.578c2.918 2.918 5.888 6.81 7.834 9.728L512 671.795l148.07 106.496a38 38 0 0 1 7.834-9.728l-145.1-104.55 122.572-88.064 5.888 16.384 50.995 154.01a48.8 48.8 0 0 1 12.749-3.892l-56.883-174.285 25.497-18.432 124.519-90.01c-2.919-2.918-4.864-6.758-7.834-10.649l-121.6 87.143-3.891 2.918-22.58 15.462-47.103-142.336h181.453v-13.516H600.218L543.386 224.46a49 49 0 0 1-12.75 3.84l55.911 170.445-150.016.972zm-217.702-48.436 220.672-158.77c1.945 3.84 4.864 6.758 7.833 9.676L225.638 361.984c-1.945-3.891-4.864-6.758-6.86-10.65m39.219 395.06-85.3-259.533c3.943-.922 7.834-2.867 11.777-3.84l86.272 259.481c-4.864.973-8.807 2.868-12.75 3.84zm388.352 83.25H378.624v-13.567H646.4v9.728c-1.024 1.894-1.024 2.867 0 3.84zm205.926-341.81-85.299 259.481a55.5 55.5 0 0 0-11.776-3.84l85.3-259.481c2.969.972 6.86 2.867 11.775 3.84m-266.752-295.27 220.672 158.77c-2.918 2.919-4.915 6.759-6.86 10.65L576.716 203.213c2.97-3.891 5.888-6.81 8.857-10.65zm289.28 157.798c30.464 0 54.938 24.217 54.938 54.272 0 29.952-24.525 54.17-54.887 54.17a54.477 54.477 0 0 1-54.937-54.222c0-30.003 24.525-54.22 54.937-54.22z"/></svg>