<svg xmlns="http://www.w3.org/2000/svg" width="200" height="200" class="icon" viewBox="0 0 1024 1024"><path fill="#e80230" d="M855.654 512.154c0 56.422-.153 112.896.256 169.267 0 9.062-2.713 13.773-10.854 17.92a74510 74510 0 0 0-321.024 169.984c-7.68 3.993-13.824 4.813-22.22.358a62695 62695 0 0 0-323.84-170.7c-7.527-3.943-9.882-8.602-9.882-17.05.256-113.255.256-226.56 0-339.866 0-8.448 2.713-13.107 10.035-16.998A92518 92518 0 0 0 501.914 154.47c7.526-3.993 13.21-4.352 20.992-.256A65522 65522 0 0 0 847.462 326.4c7.783 4.096 8.295 9.267 8.295 16.538a25193 25193 0 0 0-.103 169.216M489.472 727.552V709.12c0-101.888.154-203.776-.358-305.664 0-11.622 2.713-17.971 13.363-23.194 28.774-14.182 56.832-29.696 85.248-44.697 3.174-1.946 6.246-4.096 9.216-6.349-27.648-14.643-53.402-28.672-79.616-41.83-3.482-1.741-9.728-.666-13.568 1.33a21905 21905 0 0 0-166.81 87.604c-13.517 7.168-32 11.878-38.502 23.398-6.912 12.186-2.355 31.13-2.714 47.104-.153 13.517 0 26.983 0 42.701l107.879-56.73v16.897c0 73.37 0 146.79.153 220.262 0 4.915 1.331 12.493 4.455 14.285 25.958 14.54 52.377 28.057 81.254 43.213zm85.248-22.528c4.915-2.15 8.397-3.43 11.674-5.12 20.787-11.008 41.37-22.323 62.464-32.666 8.857-4.352 12.185-9.523 12.134-19.814-.41-81.664-.205-163.328-.205-245.094 0-4.352-.46-8.704-.717-14.95-25.753 13.567-49.766 26.93-74.393 38.911-8.96 4.352-11.11 9.882-11.06 19.098.257 64.717 0 129.433 0 194.048.103 21.197.103 42.291.103 65.536v.102z"/></svg>